<svg xmlns="http://www.w3.org/2000/svg" xmlns:xlink="http://www.w3.org/1999/xlink" width="500" zoomAndPan="magnify" viewBox="0 0 375 374.999991" height="500" preserveAspectRatio="xMidYMid meet" version="1.0"><defs><g/><clipPath id="b7e71abf6e"><path d="M 167 77 L 208 77 L 208 170.257812 L 167 170.257812 Z M 167 77 " clip-rule="nonzero"/></clipPath></defs><path fill="#1a1927" d="M 154.367188 157.335938 C 152.378906 157.335938 151.054688 156.671875 149.730469 155.347656 L 123.230469 128.847656 C 120.578125 126.199219 120.578125 122.222656 123.230469 119.570312 L 149.730469 93.070312 C 152.378906 90.421875 156.355469 90.421875 159.007812 93.070312 C 161.65625 95.722656 161.65625 99.695312 159.007812 102.347656 L 137.144531 124.210938 L 159.007812 146.074219 C 161.65625 148.722656 161.65625 152.699219 159.007812 155.347656 C 157.679688 156.671875 156.355469 157.335938 154.367188 157.335938 Z M 154.367188 157.335938 " fill-opacity="1" fill-rule="nonzero"/><path fill="#1a1927" d="M 220.621094 157.335938 C 218.632812 157.335938 217.308594 156.671875 215.984375 155.347656 C 213.332031 152.699219 213.332031 148.722656 215.984375 146.074219 L 237.847656 124.210938 L 215.984375 102.347656 C 213.332031 99.695312 213.332031 95.722656 215.984375 93.070312 C 218.632812 90.421875 222.609375 90.421875 225.257812 93.070312 L 251.757812 119.570312 C 254.410156 122.222656 254.410156 126.199219 251.757812 128.847656 L 225.257812 155.347656 C 223.933594 156.671875 222.609375 157.335938 220.621094 157.335938 Z M 220.621094 157.335938 " fill-opacity="1" fill-rule="nonzero"/><g clip-path="url(#b7e71abf6e)"><path fill="#1a1927" d="M 174.242188 170.585938 C 173.582031 170.585938 172.917969 170.585938 172.257812 169.921875 C 168.945312 168.597656 166.957031 165.285156 168.28125 161.3125 L 194.78125 81.808594 C 196.105469 78.496094 199.417969 76.507812 203.394531 77.832031 C 206.707031 79.160156 208.695312 82.472656 207.371094 86.445312 L 180.871094 165.949219 C 179.542969 168.597656 176.894531 170.585938 174.242188 170.585938 Z M 174.242188 170.585938 " fill-opacity="1" fill-rule="nonzero"/></g><g fill="#fbc108" fill-opacity="1"><g transform="translate(58.718988, 204.163844)"><g><path d="M 10.03125 0.28125 C 7.039062 0.28125 4.851562 -0.550781 3.46875 -2.21875 C 2.09375 -3.894531 1.40625 -6.394531 1.40625 -9.71875 C 1.40625 -16.363281 4.144531 -19.6875 9.625 -19.6875 C 11.507812 -19.6875 13.019531 -19.304688 14.15625 -18.546875 C 15.300781 -17.796875 16.023438 -16.679688 16.328125 -15.203125 C 16.472656 -14.441406 16.3125 -13.847656 15.84375 -13.421875 C 15.375 -13.003906 14.757812 -12.796875 14 -12.796875 L 13.65625 -12.796875 C 13.175781 -12.796875 12.8125 -12.878906 12.5625 -13.046875 C 12.3125 -13.210938 12.109375 -13.460938 11.953125 -13.796875 C 11.804688 -14.140625 11.640625 -14.546875 11.453125 -15.015625 C 11.210938 -15.609375 10.613281 -15.90625 9.65625 -15.90625 C 8.875 -15.90625 8.253906 -15.703125 7.796875 -15.296875 C 7.335938 -14.898438 7.007812 -14.253906 6.8125 -13.359375 C 6.625 -12.460938 6.53125 -11.25 6.53125 -9.71875 C 6.53125 -8.070312 6.679688 -6.8125 6.984375 -5.9375 C 7.296875 -5.0625 7.707031 -4.457031 8.21875 -4.125 C 8.726562 -3.800781 9.285156 -3.640625 9.890625 -3.640625 C 10.535156 -3.640625 11.09375 -3.738281 11.5625 -3.9375 C 12.03125 -4.144531 12.265625 -4.425781 12.265625 -4.78125 L 12.265625 -6.9375 L 11.8125 -6.9375 C 10.226562 -6.9375 9.4375 -7.535156 9.4375 -8.734375 C 9.4375 -9.929688 10.226562 -10.53125 11.8125 -10.53125 L 14.359375 -10.53125 C 15.953125 -10.53125 16.75 -9.734375 16.75 -8.140625 L 16.75 -4.34375 C 16.75 -3.757812 16.703125 -3.273438 16.609375 -2.890625 C 16.523438 -2.515625 16.351562 -2.1875 16.09375 -1.90625 C 15.519531 -1.289062 14.757812 -0.769531 13.8125 -0.34375 C 12.875 0.0703125 11.613281 0.28125 10.03125 0.28125 Z M 10.03125 0.28125 "/></g></g></g><g fill="#fbc108" fill-opacity="1"><g transform="translate(80.500503, 204.163844)"><g><path d="M 7.34375 -3.71875 C 8.15625 -3.738281 8.972656 -3.75 9.796875 -3.75 C 10.617188 -3.75 11.421875 -3.757812 12.203125 -3.78125 C 13.796875 -3.78125 14.59375 -3.15625 14.59375 -1.90625 C 14.59375 -0.632812 13.796875 0 12.203125 0 L 4.484375 0 C 3.710938 0 3.117188 -0.203125 2.703125 -0.609375 C 2.296875 -1.023438 2.101562 -1.613281 2.125 -2.375 C 2.125 -3.613281 2.128906 -4.84375 2.140625 -6.0625 C 2.148438 -7.28125 2.15625 -8.5 2.15625 -9.71875 C 2.15625 -10.925781 2.148438 -12.140625 2.140625 -13.359375 C 2.128906 -14.585938 2.125 -15.8125 2.125 -17.03125 C 2.101562 -17.789062 2.296875 -18.375 2.703125 -18.78125 C 3.117188 -19.195312 3.710938 -19.40625 4.484375 -19.40625 L 11.921875 -19.40625 C 13.515625 -19.40625 14.3125 -18.78125 14.3125 -17.53125 C 14.3125 -16.257812 13.515625 -15.625 11.921875 -15.625 C 11.179688 -15.644531 10.421875 -15.65625 9.640625 -15.65625 C 8.867188 -15.65625 8.101562 -15.664062 7.34375 -15.6875 L 7.34375 -11.390625 C 7.9375 -11.410156 8.519531 -11.421875 9.09375 -11.421875 C 9.675781 -11.421875 10.25 -11.429688 10.8125 -11.453125 C 12.394531 -11.453125 13.1875 -10.828125 13.1875 -9.578125 C 13.1875 -8.304688 12.394531 -7.671875 10.8125 -7.671875 C 10.25 -7.691406 9.675781 -7.703125 9.09375 -7.703125 C 8.519531 -7.703125 7.9375 -7.710938 7.34375 -7.734375 Z M 7.34375 -3.71875 "/></g></g></g><g fill="#fbc108" fill-opacity="1"><g transform="translate(99.95833, 204.163844)"><g><path d="M 9.625 0.28125 C 4.144531 0.28125 1.40625 -3.050781 1.40625 -9.71875 C 1.40625 -16.363281 4.144531 -19.6875 9.625 -19.6875 C 15.101562 -19.6875 17.84375 -16.363281 17.84375 -9.71875 C 17.84375 -3.050781 15.101562 0.28125 9.625 0.28125 Z M 9.625 -3.5 C 10.375 -3.5 10.953125 -3.6875 11.359375 -4.0625 C 11.773438 -4.4375 12.066406 -5.078125 12.234375 -5.984375 C 12.398438 -6.890625 12.484375 -8.132812 12.484375 -9.71875 C 12.484375 -11.300781 12.398438 -12.539062 12.234375 -13.4375 C 12.066406 -14.332031 11.773438 -14.96875 11.359375 -15.34375 C 10.953125 -15.71875 10.375 -15.90625 9.625 -15.90625 C 8.90625 -15.90625 8.332031 -15.71875 7.90625 -15.34375 C 7.488281 -14.96875 7.191406 -14.332031 7.015625 -13.4375 C 6.835938 -12.539062 6.75 -11.300781 6.75 -9.71875 C 6.75 -8.132812 6.835938 -6.890625 7.015625 -5.984375 C 7.191406 -5.078125 7.488281 -4.4375 7.90625 -4.0625 C 8.332031 -3.6875 8.90625 -3.5 9.625 -3.5 Z M 9.625 -3.5 "/></g></g></g><g fill="#fbc108" fill-opacity="1"><g transform="translate(122.859696, 204.163844)"><g><path d="M 9.46875 0.28125 C 8.175781 0.28125 7.046875 0 6.078125 -0.5625 C 5.117188 -1.132812 4.3125 -2.070312 3.65625 -3.375 C 3.007812 -4.6875 2.515625 -6.445312 2.171875 -8.65625 C 1.828125 -10.875 1.625 -13.617188 1.5625 -16.890625 C 1.550781 -17.703125 1.75 -18.320312 2.15625 -18.75 C 2.5625 -19.1875 3.148438 -19.40625 3.921875 -19.40625 L 4.734375 -19.40625 C 6.316406 -19.40625 7.109375 -18.546875 7.109375 -16.828125 C 7.148438 -14.304688 7.226562 -12.226562 7.34375 -10.59375 C 7.46875 -8.957031 7.640625 -7.664062 7.859375 -6.71875 C 8.085938 -5.78125 8.367188 -5.117188 8.703125 -4.734375 C 9.046875 -4.359375 9.429688 -4.171875 9.859375 -4.171875 C 10.335938 -4.171875 10.738281 -4.359375 11.0625 -4.734375 C 11.394531 -5.117188 11.65625 -5.78125 11.84375 -6.71875 C 12.03125 -7.664062 12.171875 -8.957031 12.265625 -10.59375 C 12.359375 -12.226562 12.414062 -14.304688 12.4375 -16.828125 C 12.4375 -18.546875 13.226562 -19.40625 14.8125 -19.40625 L 15.03125 -19.40625 C 15.800781 -19.40625 16.398438 -18.863281 16.828125 -17.78125 C 17.253906 -16.695312 17.394531 -15.128906 17.25 -13.078125 C 17.082031 -10.554688 16.789062 -8.4375 16.375 -6.71875 C 15.96875 -5 15.4375 -3.625 14.78125 -2.59375 C 14.125 -1.570312 13.351562 -0.835938 12.46875 -0.390625 C 11.582031 0.0546875 10.582031 0.28125 9.46875 0.28125 Z M 9.46875 0.28125 "/></g></g></g><g fill="#fbc108" fill-opacity="1"><g transform="translate(145.173133, 204.163844)"><g><path d="M 8.9375 -19.6875 C 10.144531 -19.6875 11.207031 -19.398438 12.125 -18.828125 C 13.039062 -18.253906 13.804688 -17.316406 14.421875 -16.015625 C 15.035156 -14.710938 15.503906 -12.957031 15.828125 -10.75 C 16.160156 -8.550781 16.351562 -5.804688 16.40625 -2.515625 C 16.425781 -1.710938 16.226562 -1.09375 15.8125 -0.65625 C 15.40625 -0.21875 14.820312 0 14.0625 0 L 13.640625 0 C 12.046875 0 11.25 -0.726562 11.25 -2.1875 C 11.25 -2.5625 11.25 -2.925781 11.25 -3.28125 C 11.25 -3.632812 11.242188 -3.988281 11.234375 -4.34375 L 6.265625 -4.34375 C 6.265625 -4.039062 6.257812 -3.722656 6.25 -3.390625 C 6.25 -3.066406 6.25 -2.726562 6.25 -2.375 C 6.25 -0.789062 5.460938 0 3.890625 0 C 3.140625 0 2.5625 -0.203125 2.15625 -0.609375 C 1.75 -1.023438 1.550781 -1.625 1.5625 -2.40625 C 1.582031 -3.175781 1.601562 -3.90625 1.625 -4.59375 C 1.644531 -5.28125 1.671875 -5.941406 1.703125 -6.578125 C 1.929688 -9.878906 2.347656 -12.488281 2.953125 -14.40625 C 3.554688 -16.320312 4.359375 -17.679688 5.359375 -18.484375 C 6.359375 -19.285156 7.550781 -19.6875 8.9375 -19.6875 Z M 6.328125 -7.671875 L 11.109375 -7.671875 C 11.003906 -9.765625 10.835938 -11.394531 10.609375 -12.5625 C 10.390625 -13.726562 10.101562 -14.546875 9.75 -15.015625 C 9.40625 -15.492188 9.003906 -15.734375 8.546875 -15.734375 C 8.078125 -15.734375 7.6875 -15.492188 7.375 -15.015625 C 7.070312 -14.546875 6.835938 -13.726562 6.671875 -12.5625 C 6.515625 -11.394531 6.398438 -9.765625 6.328125 -7.671875 Z M 6.328125 -7.671875 "/></g></g></g><g fill="#fbc108" fill-opacity="1"><g transform="translate(166.786672, 204.163844)"><g><path d="M 14.84375 -19.40625 C 16.375 -19.40625 17.117188 -18.613281 17.078125 -17.03125 C 17.054688 -12.15625 17.054688 -7.269531 17.078125 -2.375 C 17.097656 -1.613281 16.898438 -1.023438 16.484375 -0.609375 C 16.078125 -0.203125 15.492188 0 14.734375 0 L 14.3125 0 C 13 0 12.066406 -0.585938 11.515625 -1.765625 L 6.109375 -12.984375 L 6.046875 -12.984375 C 6.085938 -11.015625 6.144531 -9.1875 6.21875 -7.5 C 6.289062 -5.820312 6.382812 -4.144531 6.5 -2.46875 C 6.59375 -0.820312 5.882812 0 4.375 0 C 3.644531 0 3.082031 -0.203125 2.6875 -0.609375 C 2.289062 -1.023438 2.101562 -1.613281 2.125 -2.375 C 2.144531 -7.269531 2.144531 -12.15625 2.125 -17.03125 C 2.101562 -17.789062 2.296875 -18.375 2.703125 -18.78125 C 3.117188 -19.195312 3.710938 -19.40625 4.484375 -19.40625 L 5.90625 -19.40625 C 7.21875 -19.40625 8.148438 -18.816406 8.703125 -17.640625 L 13.078125 -8.546875 L 13.125 -8.546875 C 13.09375 -10.078125 13.039062 -11.53125 12.96875 -12.90625 C 12.894531 -14.289062 12.8125 -15.632812 12.71875 -16.9375 C 12.601562 -18.582031 13.3125 -19.40625 14.84375 -19.40625 Z M 14.84375 -19.40625 "/></g></g></g><g fill="#fbc108" fill-opacity="1"><g transform="translate(189.632041, 204.163844)"><g><path d="M 14.84375 -19.40625 C 16.375 -19.40625 17.117188 -18.613281 17.078125 -17.03125 C 17.054688 -12.15625 17.054688 -7.269531 17.078125 -2.375 C 17.097656 -1.613281 16.898438 -1.023438 16.484375 -0.609375 C 16.078125 -0.203125 15.492188 0 14.734375 0 L 14.3125 0 C 13 0 12.066406 -0.585938 11.515625 -1.765625 L 6.109375 -12.984375 L 6.046875 -12.984375 C 6.085938 -11.015625 6.144531 -9.1875 6.21875 -7.5 C 6.289062 -5.820312 6.382812 -4.144531 6.5 -2.46875 C 6.59375 -0.820312 5.882812 0 4.375 0 C 3.644531 0 3.082031 -0.203125 2.6875 -0.609375 C 2.289062 -1.023438 2.101562 -1.613281 2.125 -2.375 C 2.144531 -7.269531 2.144531 -12.15625 2.125 -17.03125 C 2.101562 -17.789062 2.296875 -18.375 2.703125 -18.78125 C 3.117188 -19.195312 3.710938 -19.40625 4.484375 -19.40625 L 5.90625 -19.40625 C 7.21875 -19.40625 8.148438 -18.816406 8.703125 -17.640625 L 13.078125 -8.546875 L 13.125 -8.546875 C 13.09375 -10.078125 13.039062 -11.53125 12.96875 -12.90625 C 12.894531 -14.289062 12.8125 -15.632812 12.71875 -16.9375 C 12.601562 -18.582031 13.3125 -19.40625 14.84375 -19.40625 Z M 14.84375 -19.40625 "/></g></g></g><g fill="#fbc108" fill-opacity="1"><g transform="translate(212.477411, 204.163844)"><g><path d="M 11.84375 -16.890625 C 11.894531 -18.546875 12.6875 -19.375 14.21875 -19.375 C 15.007812 -19.375 15.59375 -19.160156 15.96875 -18.734375 C 16.351562 -18.304688 16.5 -17.695312 16.40625 -16.90625 C 16.21875 -15.320312 15.9375 -13.800781 15.5625 -12.34375 C 15.195312 -10.882812 14.664062 -9.609375 13.96875 -8.515625 C 13.28125 -7.429688 12.367188 -6.628906 11.234375 -6.109375 C 11.265625 -5.410156 11.285156 -4.765625 11.296875 -4.171875 C 11.304688 -3.578125 11.320312 -2.976562 11.34375 -2.375 C 11.363281 -1.613281 11.164062 -1.023438 10.75 -0.609375 C 10.34375 -0.203125 9.753906 0 8.984375 0 L 8.484375 0 C 7.722656 0 7.132812 -0.203125 6.71875 -0.609375 C 6.3125 -1.023438 6.113281 -1.613281 6.125 -2.375 C 6.144531 -2.957031 6.171875 -3.539062 6.203125 -4.125 C 6.234375 -4.71875 6.253906 -5.347656 6.265625 -6.015625 C 5.179688 -6.554688 4.300781 -7.363281 3.625 -8.4375 C 2.945312 -9.507812 2.410156 -10.773438 2.015625 -12.234375 C 1.617188 -13.691406 1.3125 -15.25 1.09375 -16.90625 C 1.019531 -17.695312 1.171875 -18.304688 1.546875 -18.734375 C 1.929688 -19.160156 2.523438 -19.375 3.328125 -19.375 L 4.53125 -19.375 C 6.0625 -19.375 6.875 -18.570312 6.96875 -16.96875 C 7.082031 -15.4375 7.207031 -14.109375 7.34375 -12.984375 C 7.488281 -11.867188 7.722656 -11.007812 8.046875 -10.40625 C 8.378906 -9.8125 8.867188 -9.515625 9.515625 -9.515625 C 10.898438 -9.515625 11.675781 -11.972656 11.84375 -16.890625 Z M 11.84375 -16.890625 "/></g></g></g><g fill="#1a1927" fill-opacity="1"><g transform="translate(233.62132, 204.163844)"><g><path d="M 9.4375 0.28125 C 6.65625 0.28125 4.613281 -0.550781 3.3125 -2.21875 C 2.019531 -3.894531 1.375 -6.394531 1.375 -9.71875 C 1.375 -16.363281 4.125 -19.6875 9.625 -19.6875 C 11.695312 -19.6875 13.351562 -19.179688 14.59375 -18.171875 C 15.84375 -17.160156 16.550781 -15.703125 16.71875 -13.796875 C 16.789062 -13.015625 16.597656 -12.421875 16.140625 -12.015625 C 15.679688 -11.617188 15.070312 -11.421875 14.3125 -11.421875 L 14.140625 -11.421875 C 13.367188 -11.421875 12.8125 -11.628906 12.46875 -12.046875 C 12.125 -12.472656 11.894531 -13.085938 11.78125 -13.890625 C 11.675781 -14.617188 11.441406 -15.132812 11.078125 -15.4375 C 10.710938 -15.75 10.175781 -15.90625 9.46875 -15.90625 C 8.5 -15.90625 7.800781 -15.441406 7.375 -14.515625 C 6.957031 -13.585938 6.75 -11.988281 6.75 -9.71875 C 6.75 -8.070312 6.863281 -6.804688 7.09375 -5.921875 C 7.332031 -5.035156 7.65625 -4.421875 8.0625 -4.078125 C 8.476562 -3.742188 8.945312 -3.578125 9.46875 -3.578125 C 10.0625 -3.578125 10.535156 -3.679688 10.890625 -3.890625 C 11.242188 -4.097656 11.503906 -4.453125 11.671875 -4.953125 C 11.921875 -5.703125 12.222656 -6.265625 12.578125 -6.640625 C 12.929688 -7.023438 13.472656 -7.21875 14.203125 -7.21875 L 14.21875 -7.21875 C 14.988281 -7.21875 15.601562 -7.003906 16.0625 -6.578125 C 16.519531 -6.148438 16.671875 -5.523438 16.515625 -4.703125 C 16.234375 -3.003906 15.484375 -1.75 14.265625 -0.9375 C 13.046875 -0.125 11.4375 0.28125 9.4375 0.28125 Z M 9.4375 0.28125 "/></g></g></g><g fill="#1a1927" fill-opacity="1"><g transform="translate(255.038879, 204.163844)"><g><path d="M 9.625 0.28125 C 4.144531 0.28125 1.40625 -3.050781 1.40625 -9.71875 C 1.40625 -16.363281 4.144531 -19.6875 9.625 -19.6875 C 15.101562 -19.6875 17.84375 -16.363281 17.84375 -9.71875 C 17.84375 -3.050781 15.101562 0.28125 9.625 0.28125 Z M 9.625 -3.5 C 10.375 -3.5 10.953125 -3.6875 11.359375 -4.0625 C 11.773438 -4.4375 12.066406 -5.078125 12.234375 -5.984375 C 12.398438 -6.890625 12.484375 -8.132812 12.484375 -9.71875 C 12.484375 -11.300781 12.398438 -12.539062 12.234375 -13.4375 C 12.066406 -14.332031 11.773438 -14.96875 11.359375 -15.34375 C 10.953125 -15.71875 10.375 -15.90625 9.625 -15.90625 C 8.90625 -15.90625 8.332031 -15.71875 7.90625 -15.34375 C 7.488281 -14.96875 7.191406 -14.332031 7.015625 -13.4375 C 6.835938 -12.539062 6.75 -11.300781 6.75 -9.71875 C 6.75 -8.132812 6.835938 -6.890625 7.015625 -5.984375 C 7.191406 -5.078125 7.488281 -4.4375 7.90625 -4.0625 C 8.332031 -3.6875 8.90625 -3.5 9.625 -3.5 Z M 9.625 -3.5 "/></g></g></g><g fill="#1a1927" fill-opacity="1"><g transform="translate(277.940244, 204.163844)"><g><path d="M 8.484375 0.03125 L 4.484375 0 C 2.890625 0 2.09375 -0.773438 2.09375 -2.328125 C 2.09375 -2.960938 2.097656 -3.6875 2.109375 -4.5 C 2.117188 -5.3125 2.128906 -6.273438 2.140625 -7.390625 C 2.148438 -8.515625 2.15625 -9.847656 2.15625 -11.390625 C 2.15625 -12.941406 2.15625 -14.78125 2.15625 -16.90625 C 2.15625 -18.570312 2.945312 -19.40625 4.53125 -19.40625 L 8.484375 -19.40625 C 10.609375 -19.40625 12.328125 -19.09375 13.640625 -18.46875 C 14.960938 -17.84375 15.929688 -16.835938 16.546875 -15.453125 C 17.160156 -14.078125 17.46875 -12.25 17.46875 -9.96875 C 17.46875 -6.570312 16.765625 -4.0625 15.359375 -2.4375 C 13.953125 -0.8125 11.660156 0.0078125 8.484375 0.03125 Z M 7.359375 -3.859375 L 8.375 -3.859375 C 9.832031 -3.859375 10.847656 -4.367188 11.421875 -5.390625 C 12.003906 -6.410156 12.296875 -7.851562 12.296875 -9.71875 C 12.296875 -11.15625 12.175781 -12.296875 11.9375 -13.140625 C 11.707031 -13.992188 11.304688 -14.609375 10.734375 -14.984375 C 10.171875 -15.359375 9.382812 -15.546875 8.375 -15.546875 L 7.359375 -15.546875 C 7.359375 -14.910156 7.351562 -14.222656 7.34375 -13.484375 C 7.34375 -12.742188 7.34375 -11.851562 7.34375 -10.8125 C 7.34375 -9.78125 7.34375 -8.460938 7.34375 -6.859375 C 7.34375 -6.359375 7.34375 -5.851562 7.34375 -5.34375 C 7.34375 -4.84375 7.347656 -4.347656 7.359375 -3.859375 Z M 7.359375 -3.859375 "/></g></g></g><g fill="#1a1927" fill-opacity="1"><g transform="translate(300.449661, 204.163844)"><g><path d="M 7.34375 -3.71875 C 8.15625 -3.738281 8.972656 -3.75 9.796875 -3.75 C 10.617188 -3.75 11.421875 -3.757812 12.203125 -3.78125 C 13.796875 -3.78125 14.59375 -3.15625 14.59375 -1.90625 C 14.59375 -0.632812 13.796875 0 12.203125 0 L 4.484375 0 C 3.710938 0 3.117188 -0.203125 2.703125 -0.609375 C 2.296875 -1.023438 2.101562 -1.613281 2.125 -2.375 C 2.125 -3.613281 2.128906 -4.84375 2.140625 -6.0625 C 2.148438 -7.28125 2.15625 -8.5 2.15625 -9.71875 C 2.15625 -10.925781 2.148438 -12.140625 2.140625 -13.359375 C 2.128906 -14.585938 2.125 -15.8125 2.125 -17.03125 C 2.101562 -17.789062 2.296875 -18.375 2.703125 -18.78125 C 3.117188 -19.195312 3.710938 -19.40625 4.484375 -19.40625 L 11.921875 -19.40625 C 13.515625 -19.40625 14.3125 -18.78125 14.3125 -17.53125 C 14.3125 -16.257812 13.515625 -15.625 11.921875 -15.625 C 11.179688 -15.644531 10.421875 -15.65625 9.640625 -15.65625 C 8.867188 -15.65625 8.101562 -15.664062 7.34375 -15.6875 L 7.34375 -11.390625 C 7.9375 -11.410156 8.519531 -11.421875 9.09375 -11.421875 C 9.675781 -11.421875 10.25 -11.429688 10.8125 -11.453125 C 12.394531 -11.453125 13.1875 -10.828125 13.1875 -9.578125 C 13.1875 -8.304688 12.394531 -7.671875 10.8125 -7.671875 C 10.25 -7.691406 9.675781 -7.703125 9.09375 -7.703125 C 8.519531 -7.703125 7.9375 -7.710938 7.34375 -7.734375 Z M 7.34375 -3.71875 "/></g></g></g></svg>